<svg width="32" height="32" viewBox="0 0 32 32" fill="none" xmlns="http://www.w3.org/2000/svg">
<g id="phone">
<path id="Vector" d="M10.8211 15.2228C12.3411 18.21 14.79 20.6589 17.7772 22.1789L20.0994 19.8567C20.395 19.5611 20.8067 19.4767 21.1761 19.5928C22.3583 19.9833 23.625 20.1944 24.9444 20.1944C25.2244 20.1944 25.4929 20.3057 25.6908 20.5036C25.8888 20.7016 26 20.97 26 21.25V24.9444C26 25.2244 25.8888 25.4929 25.6908 25.6908C25.4929 25.8888 25.2244 26 24.9444 26C20.1853 26 15.621 24.1094 12.2558 20.7442C8.89057 17.379 7 12.8147 7 8.05556C7 7.7756 7.11121 7.50712 7.30917 7.30917C7.50712 7.11121 7.7756 7 8.05556 7H11.75C12.03 7 12.2984 7.11121 12.4964 7.30917C12.6943 7.50712 12.8056 7.7756 12.8056 8.05556C12.8056 9.375 13.0167 10.6417 13.4072 11.8239C13.5233 12.1933 13.4389 12.605 13.1433 12.9006L10.8211 15.2228Z" fill="#D5D6D8"/>
</g>
</svg>
